<?xml version="1.0" encoding="UTF-8" standalone="no"?>
<svg
   xmlns:dc="http://purl.org/dc/elements/1.1/"
   xmlns:cc="http://creativecommons.org/ns#"
   xmlns:rdf="http://www.w3.org/1999/02/22-rdf-syntax-ns#"
   xmlns:svg="http://www.w3.org/2000/svg"
   xmlns="http://www.w3.org/2000/svg"
   xmlns:sodipodi="http://sodipodi.sourceforge.net/DTD/sodipodi-0.dtd"
   xmlns:inkscape="http://www.inkscape.org/namespaces/inkscape"
   viewBox="0 0 32 32"
   width="64"
   height="64"
   version="1.1"
   id="svg1676"
   sodipodi:docname="expressjs-icon.svg"
   inkscape:version="1.0.1 (c497b03c, 2020-09-10)">
  <metadata
     id="metadata1682">
    <rdf:RDF>
      <cc:Work
         rdf:about="">
        <dc:format>image/svg+xml</dc:format>
        <dc:type
           rdf:resource="http://purl.org/dc/dcmitype/StillImage" />
      </cc:Work>
    </rdf:RDF>
  </metadata>
  <defs
     id="defs1680" />
  <sodipodi:namedview
     pagecolor="#ffffff"
     bordercolor="#666666"
     borderopacity="1"
     objecttolerance="10"
     gridtolerance="10"
     guidetolerance="10"
     inkscape:pageopacity="0"
     inkscape:pageshadow="2"
     inkscape:window-width="1434"
     inkscape:window-height="756"
     id="namedview1678"
     showgrid="false"
     inkscape:zoom="9.3125"
     inkscape:cx="39.428267"
     inkscape:cy="29.067576"
     inkscape:window-x="0"
     inkscape:window-y="23"
     inkscape:window-maximized="0"
     inkscape:current-layer="svg1676" />
  <path
     d="M32 24.795c-1.164.296-1.884.013-2.53-.957l-4.594-6.356-.664-.88-5.365 7.257c-.613.873-1.256 1.253-2.4.944l6.87-9.222-6.396-8.33c1.1-.214 1.86-.105 2.535.88l4.765 6.435 4.8-6.4c.615-.873 1.276-1.205 2.38-.883l-2.48 3.288-3.36 4.375c-.4.5-.345.842.023 1.325L32 24.795zM.008 15.427l.562-2.764C2.1 7.193 8.37 4.92 12.694 8.3c2.527 1.988 3.155 4.8 3.03 7.95H1.48c-.214 5.67 3.867 9.092 9.07 7.346 1.825-.613 2.9-2.042 3.438-3.83.273-.896.725-1.036 1.567-.78-.43 2.236-1.4 4.104-3.45 5.273-3.063 1.75-7.435 1.184-9.735-1.248C1 21.6.434 19.812.18 17.9c-.04-.316-.12-.617-.18-.92q.008-.776.008-1.552zm1.498-.38h12.872c-.084-4.1-2.637-7.012-6.126-7.037-3.83-.03-6.58 2.813-6.746 7.037z"
     id="path1674"
     style="fill:#ffffff;fill-opacity:1" />
</svg>
